<svg xmlns="http://www.w3.org/2000/svg" viewBox="0 0 500 500">
<g fill="#4b3428" stroke="none">
<path d="M 229 273 L 230 274 L 230 281 L 228 283 L 227 280 Z"/>
<path d="M 270 271 L 277 282 L 279 288 L 278 291 L 276 290 L 269 274 Z"/>
<path d="M 268 270 L 269 269 L 270 271 L 269 272 Z"/>
<path d="M 304 251 L 303 250 L 302 252 Z"/>
<path d="M 278 205 L 283 209 L 284 213 L 283 227 L 276 242 L 266 254 L 264 245 L 265 225 L 267 217 L 270 211 L 275 206 Z"/>
<path d="M 389 257 L 383 258 L 376 263 L 372 264 L 362 254 L 356 254 L 350 261 L 343 252 L 339 251 L 334 255 L 332 260 L 330 256 L 319 266 L 308 271 L 303 266 L 304 255 L 303 254 L 300 258 L 291 260 L 268 259 L 266 257 L 277 243 L 282 233 L 285 223 L 285 210 L 283 206 L 277 204 L 271 207 L 264 220 L 262 230 L 262 252 L 263 256 L 261 258 L 255 260 L 243 260 L 233 255 L 230 258 L 228 256 L 223 261 L 219 263 L 209 265 L 205 264 L 201 260 L 200 257 L 202 252 L 200 251 L 194 261 L 190 265 L 188 265 L 187 264 L 188 257 L 193 252 L 197 252 L 194 251 L 191 252 L 186 257 L 181 258 L 170 264 L 160 254 L 154 254 L 148 261 L 141 252 L 137 251 L 132 255 L 130 259 L 128 256 L 127 257 L 127 267 L 130 268 L 132 258 L 135 253 L 138 253 L 145 260 L 148 265 L 150 264 L 151 259 L 155 255 L 159 256 L 167 264 L 174 264 L 184 258 L 186 267 L 192 266 L 198 258 L 200 262 L 206 266 L 214 266 L 222 263 L 227 259 L 229 262 L 229 267 L 227 273 L 227 284 L 229 285 L 232 279 L 231 261 L 233 257 L 245 262 L 255 261 L 262 258 L 264 261 L 264 266 L 267 277 L 272 288 L 276 293 L 280 293 L 281 289 L 279 283 L 274 273 L 266 261 L 267 260 L 269 261 L 289 261 L 290 260 L 301 259 L 303 269 L 308 272 L 319 268 L 328 260 L 329 261 L 329 267 L 332 268 L 334 258 L 338 253 L 340 253 L 347 260 L 350 265 L 352 264 L 354 258 L 357 255 L 361 256 L 369 264 L 376 264 L 384 259 L 389 258 Z"/>
</g></svg>